<?xml version="1.0" encoding="UTF-8" standalone="no"?>
<!DOCTYPE svg PUBLIC "-//W3C//DTD SVG 1.1//EN"
 "http://www.w3.org/Graphics/SVG/1.1/DTD/svg11.dtd">
<!-- Generated by graphviz version 2.43.0 (0)
 -->
<!-- Title: example1 Pages: 1 -->
<svg width="344pt" height="503pt"
 viewBox="0.00 0.00 344.48 502.82" xmlns="http://www.w3.org/2000/svg" xmlns:xlink="http://www.w3.org/1999/xlink">
<g id="graph0" class="graph" transform="scale(1 1) rotate(0) translate(4 498.82)">
<title>example1</title>
<polygon fill="white" stroke="transparent" points="-4,4 -4,-498.82 340.48,-498.82 340.48,4 -4,4"/>
<!-- BIDLE -->
<g id="node1" class="node">
<title>BIDLE</title>
<ellipse fill="none" stroke="black" cx="282.08" cy="-458.42" rx="36.29" ry="36.29"/>
<text text-anchor="middle" x="282.08" y="-454.72" font-family="Times,serif" font-size="14.00">BIDLE</text>
</g>
<!-- BIDLE&#45;&gt;BIDLE -->
<g id="edge6" class="edge">
<title>BIDLE&#45;&gt;BIDLE</title>
<path fill="none" stroke="black" d="M316.87,-469.67C327.83,-469.5 336.48,-465.75 336.48,-458.42 336.48,-453.62 332.76,-450.35 327.1,-448.62"/>
<polygon fill="black" stroke="black" points="327.27,-445.11 316.87,-447.18 326.29,-452.04 327.27,-445.11"/>
</g>
<!-- BBUSY -->
<g id="node2" class="node">
<title>BBUSY</title>
<ellipse fill="none" stroke="black" cx="193.08" cy="-322.94" rx="48.17" ry="48.17"/>
<text text-anchor="middle" x="193.08" y="-326.74" font-family="Times,serif" font-size="14.00">BBUSY</text>
<text text-anchor="middle" x="193.08" y="-311.74" font-family="Times,serif" font-size="14.00">gnt=1&#39;b1,</text>
</g>
<!-- BIDLE&#45;&gt;BBUSY -->
<g id="edge4" class="edge">
<title>BIDLE&#45;&gt;BBUSY</title>
<path fill="none" stroke="black" d="M262.33,-427.8C251.36,-411.35 237.45,-390.48 224.98,-371.78"/>
<polygon fill="black" stroke="black" points="227.83,-369.74 219.37,-363.36 222,-373.62 227.83,-369.74"/>
<text text-anchor="middle" x="258.58" y="-392.83" font-family="Times,serif" font-size="14.00">(req)</text>
</g>
<!-- BBUSY&#45;&gt;BBUSY -->
<g id="edge7" class="edge">
<title>BBUSY&#45;&gt;BBUSY</title>
<path fill="none" stroke="black" d="M239.4,-336.23C250.73,-335.25 259.17,-330.82 259.17,-322.94 259.17,-317.65 255.36,-313.92 249.43,-311.74"/>
<polygon fill="black" stroke="black" points="249.91,-308.26 239.4,-309.65 248.48,-315.11 249.91,-308.26"/>
</g>
<!-- BWAIT -->
<g id="node3" class="node">
<title>BWAIT</title>
<ellipse fill="none" stroke="black" cx="48.08" cy="-175.78" rx="48.17" ry="48.17"/>
<text text-anchor="middle" x="48.08" y="-179.58" font-family="Times,serif" font-size="14.00">BWAIT</text>
<text text-anchor="middle" x="48.08" y="-164.58" font-family="Times,serif" font-size="14.00">gnt=1&#39;b1,</text>
</g>
<!-- BBUSY&#45;&gt;BWAIT -->
<g id="edge3" class="edge">
<title>BBUSY&#45;&gt;BWAIT</title>
<path fill="none" stroke="black" d="M145.93,-313.05C114.13,-304.41 74.24,-287.85 53.08,-256.86 48.45,-250.07 45.69,-242.16 44.18,-234"/>
<polygon fill="black" stroke="black" points="47.64,-233.47 42.92,-223.98 40.69,-234.34 47.64,-233.47"/>
<text text-anchor="middle" x="94.58" y="-245.66" font-family="Times,serif" font-size="14.00">(dly &amp;&amp; done)</text>
</g>
<!-- BFREE -->
<g id="node4" class="node">
<title>BFREE</title>
<ellipse fill="none" stroke="black" cx="212.08" cy="-38.35" rx="38.19" ry="38.19"/>
<text text-anchor="middle" x="212.08" y="-34.65" font-family="Times,serif" font-size="14.00">BFREE</text>
</g>
<!-- BBUSY&#45;&gt;BFREE -->
<g id="edge1" class="edge">
<title>BBUSY&#45;&gt;BFREE</title>
<path fill="none" stroke="black" d="M176.54,-277.47C164.1,-237.76 151.23,-178.26 164.08,-127.69 168.39,-110.74 176.68,-93.52 185.17,-78.85"/>
<polygon fill="black" stroke="black" points="188.3,-80.44 190.46,-70.06 182.3,-76.83 188.3,-80.44"/>
<text text-anchor="middle" x="208.08" y="-172.08" font-family="Times,serif" font-size="14.00">(!dly &amp;&amp; done)</text>
</g>
<!-- BWAIT&#45;&gt;BWAIT -->
<g id="edge8" class="edge">
<title>BWAIT&#45;&gt;BWAIT</title>
<path fill="none" stroke="black" d="M94.4,-189.07C105.73,-188.08 114.17,-183.65 114.17,-175.78 114.17,-170.49 110.36,-166.75 104.43,-164.57"/>
<polygon fill="black" stroke="black" points="104.91,-161.09 94.4,-162.49 103.48,-167.95 104.91,-161.09"/>
</g>
<!-- BWAIT&#45;&gt;BFREE -->
<g id="edge2" class="edge">
<title>BWAIT&#45;&gt;BFREE</title>
<path fill="none" stroke="black" d="M71.71,-133.85C80.91,-120.25 92.32,-105.77 105.08,-94.69 123.22,-78.95 146.61,-66.2 166.89,-56.92"/>
<polygon fill="black" stroke="black" points="168.54,-60.02 176.27,-52.77 165.7,-53.62 168.54,-60.02"/>
<text text-anchor="middle" x="120.58" y="-98.49" font-family="Times,serif" font-size="14.00">(!dly)</text>
</g>
<!-- BFREE&#45;&gt;BIDLE -->
<g id="edge9" class="edge">
<title>BFREE&#45;&gt;BIDLE</title>
<path fill="none" stroke="black" d="M241.73,-62.94C259.47,-79.05 280.38,-102.05 290.08,-127.69 326.53,-224.03 307.81,-347.78 293.45,-412.85"/>
<polygon fill="black" stroke="black" points="290,-412.25 291.19,-422.78 296.82,-413.8 290,-412.25"/>
</g>
<!-- BFREE&#45;&gt;BBUSY -->
<g id="edge5" class="edge">
<title>BFREE&#45;&gt;BBUSY</title>
<path fill="none" stroke="black" d="M230.98,-72.17C239.21,-88.33 247.93,-108.44 252.08,-127.69 261.1,-169.47 263.52,-182.68 252.08,-223.86 247.02,-242.12 237.54,-260.38 227.64,-276.11"/>
<polygon fill="black" stroke="black" points="224.65,-274.29 222.12,-284.57 230.52,-278.11 224.65,-274.29"/>
<text text-anchor="middle" x="272.58" y="-172.08" font-family="Times,serif" font-size="14.00">(req)</text>
</g>
</g>
</svg>
